<?xml version="1.0" encoding="utf-8"?>
<!-- Generator: Adobe Illustrator 23.0.1, SVG Export Plug-In . SVG Version: 6.00 Build 0)  -->
<svg version="1.1" id="レイヤー_1" xmlns="http://www.w3.org/2000/svg" xmlns:xlink="http://www.w3.org/1999/xlink" x="0px"
	 y="0px" viewBox="0 0 200 120" style="enable-background:new 0 0 200 120;" xml:space="preserve">
<style type="text/css">
	.st0{fill:#FFFFFF;}
</style>
<g>
	<g>
		<g>
			<polygon class="st0" points="59,5 58.7,19.2 63.4,19.4 63.4,4.8 			"/>
			<polygon class="st0" points="78,4.8 72.7,4.9 69.2,34.2 73.6,35.6 			"/>
			<polygon class="st0" points="107.6,20.4 113,5.4 86.1,5.5 86.2,10.6 106.9,10.2 104.3,20.2 			"/>
			<polygon class="st0" points="89.1,30.6 93.3,32.7 99.5,16.7 94.8,15.7 			"/>
			<polygon class="st0" points="124,13.5 119.3,13.7 115.6,30.1 120.7,30.8 			"/>
			<polygon class="st0" points="149.3,27.9 148.7,22.7 136.6,26.4 134.4,6.7 128.6,7.5 129.6,32.7 			"/>
			<polygon class="st0" points="7.8,78.4 13.6,78 17.5,49.3 26.1,49.8 26,57.5 17.6,58.4 18.5,62.5 25.8,61.6 25.7,66.4 15.8,65.9 
				15.7,70 25.6,70.9 25.5,81.2 20,81.6 20,84.9 30,84.6 30.7,44.9 13.5,44.3 			"/>
			<path class="st0" d="M50,74.7l0.5-13.3l2.9,0l-0.7-12.2l-3,0.3l1.2-9.3L47,41.6L45.5,50L40,50.6l-0.5-8.5l-2.9,0.9l0.2,7.9
				l-3.1,0.4l-0.1,9.8l6.6,0.1l-5.3,18.6l3.3,0L44,61.3l2.7,0l-1.3,18.4l11-2l-0.4-3.7L50,74.7z M48.4,54.5l-0.7,2.6l-8.2,0.3
				l0.7-2.3L48.4,54.5z"/>
			<polygon class="st0" points="96.6,59.7 95.5,44.7 89,46.8 89.7,54.8 82.8,55.4 83.2,41.9 77.9,41.4 77.4,55.9 70.6,56.5 
				69.9,48.1 65.8,48.9 65.3,61 77.3,60.5 76.8,74.9 70.6,74.9 70.7,66 70.7,66 70.7,66 67.2,66 67.2,66 66.8,66 66.3,77.9 96,79.8 
				95.7,64.3 90,65.6 90.3,75.1 82.1,75 82.6,60.3 			"/>
			<polygon class="st0" points="134.6,60.3 134.6,60.3 134.6,55.5 134.6,55.5 134.6,55.2 113.5,57.2 117.6,46.1 112.2,46.1 
				105,68.9 109.1,69.9 112.9,59.5 113.6,62.4 122.8,61.6 115.2,82.4 119.8,82.5 127.2,61.2 134.6,60.5 			"/>
			<polygon class="st0" points="130.8,52.5 134.9,52.5 137.2,38 133,38.4 			"/>
			<polygon class="st0" points="142.7,38 138.6,38.3 136.4,52.6 140.5,52.6 			"/>
			<polygon class="st0" points="134.7,66 134.2,71 158.8,70.4 158.4,65.5 			"/>
			<polygon class="st0" points="190.9,62.4 187.3,65.1 188.2,73.1 171,73.6 176.1,49.3 169.1,50 162.3,79.7 188.8,77.7 189.2,80.9 
				194.1,77.8 			"/>
		</g>
		<g>
			<g>
				<g>
					<path class="st0" d="M108.4,100.6l-2.4,2.1c-0.8-1.2-1.7-1.8-2.6-1.8c-0.4,0-0.8,0.1-1,0.4c-0.3,0.2-0.4,0.5-0.4,0.8
						c0,0.3,0.1,0.6,0.3,0.8c0.3,0.3,1,1.1,2.4,2.2c1.2,1,2,1.7,2.2,1.9c0.7,0.7,1.1,1.3,1.4,1.9c0.3,0.6,0.4,1.3,0.4,2
						c0,1.4-0.5,2.5-1.5,3.4c-1,0.9-2.2,1.4-3.8,1.4c-1.2,0-2.3-0.3-3.2-0.9c-0.9-0.6-1.7-1.5-2.3-2.8l2.7-1.6
						c0.8,1.5,1.8,2.3,2.8,2.3c0.6,0,1-0.2,1.4-0.5c0.4-0.3,0.6-0.7,0.6-1.1c0-0.4-0.1-0.8-0.4-1.1c-0.3-0.4-0.9-1-1.9-1.8
						c-1.8-1.5-3-2.7-3.6-3.5c-0.5-0.8-0.8-1.6-0.8-2.4c0-1.2,0.4-2.2,1.3-3c0.9-0.8,2-1.3,3.3-1.3c0.9,0,1.7,0.2,2.4,0.6
						C106.7,98.8,107.5,99.6,108.4,100.6z"/>
					<path class="st0" d="M128.1,101.3l-2.2,2.2c-1.5-1.6-3.2-2.4-5.1-2.4c-1.6,0-2.9,0.5-4,1.7c-1.1,1.1-1.6,2.4-1.6,4.1
						c0,1.1,0.2,2.1,0.7,3c0.5,0.9,1.2,1.6,2,2.1c0.9,0.5,1.9,0.7,2.9,0.7c0.9,0,1.7-0.2,2.5-0.5c0.8-0.4,1.6-1,2.5-1.9l2.1,2.3
						c-1.2,1.2-2.4,2.1-3.5,2.5c-1.1,0.5-2.3,0.7-3.7,0.7c-2.6,0-4.7-0.8-6.3-2.5c-1.6-1.7-2.5-3.8-2.5-6.4c0-1.7,0.4-3.2,1.1-4.5
						c0.8-1.3,1.8-2.4,3.2-3.2c1.4-0.8,2.9-1.2,4.5-1.2c1.4,0,2.7,0.3,3.9,0.9C126.1,99.3,127.2,100.2,128.1,101.3z"/>
					<path class="st0" d="M131.5,98.3h3.4c1.9,0,3.2,0.2,4,0.5c0.8,0.3,1.4,0.9,1.9,1.7c0.5,0.8,0.7,1.7,0.7,2.8
						c0,1.1-0.3,2-0.8,2.8c-0.5,0.7-1.3,1.3-2.4,1.7l4.8,7.5h-3.5l-4.6-7.1h-0.3v7.1h-3.2V98.3z M134.7,104.9h1c1,0,1.7-0.1,2.1-0.4
						c0.4-0.3,0.6-0.7,0.6-1.3c0-0.4-0.1-0.7-0.3-1c-0.2-0.3-0.5-0.5-0.8-0.6c-0.3-0.1-0.9-0.2-1.8-0.2h-0.9V104.9z"/>
					<path class="st0" d="M152,100.4l1.6-3.9l1.6,3.9l6.5,14.9h-3.3l-1.6-3.5h-6.4l-1.6,3.5h-3.4L152,100.4z M153.6,103.9l-2,4.7h4
						L153.6,103.9z"/>
					<path class="st0" d="M164.1,98.3h3.4c1.8,0,3.2,0.2,4,0.5c0.8,0.3,1.5,0.9,2,1.7c0.5,0.8,0.7,1.7,0.7,2.8c0,1.2-0.3,2.2-0.9,3
						c-0.6,0.8-1.5,1.3-2.5,1.6c-0.6,0.2-1.8,0.3-3.4,0.3v7.1h-3.2V98.3z M167.3,104.9h1c0.8,0,1.4,0,1.7-0.2
						c0.3-0.1,0.6-0.3,0.7-0.6c0.2-0.3,0.3-0.6,0.3-1c0-0.7-0.3-1.1-0.8-1.4c-0.4-0.2-1.1-0.3-2.1-0.3h-0.9V104.9z"/>
				</g>
			</g>
			<g>
				<path class="st0" d="M33.2,108.9c0,0.4-0.1,0.7-0.2,1c-0.1,0.3-0.3,0.6-0.6,0.9c-0.2,0.2-0.5,0.4-0.8,0.6
					c-0.3,0.1-0.7,0.2-1,0.2c-0.3,0-0.6,0-1-0.1c-0.3-0.1-0.6-0.2-0.9-0.4c-0.3-0.2-0.5-0.5-0.7-0.8c-0.2-0.3-0.3-0.8-0.3-1.3v-6.3
					c0-0.4,0.1-0.7,0.2-1.1c0.1-0.3,0.3-0.6,0.6-0.8c0.2-0.2,0.5-0.4,0.9-0.6c0.3-0.1,0.7-0.2,1.1-0.2c0.4,0,0.7,0.1,1.1,0.2
					c0.3,0.1,0.6,0.3,0.9,0.6c0.2,0.2,0.4,0.5,0.6,0.9c0.1,0.3,0.2,0.7,0.2,1.1v0.6h-1.7v-0.6c0-0.3-0.1-0.6-0.3-0.8
					c-0.2-0.2-0.4-0.4-0.8-0.4c-0.4,0-0.7,0.1-0.8,0.4c-0.1,0.3-0.2,0.6-0.2,1v5.9c0,0.3,0.1,0.6,0.2,0.8c0.1,0.2,0.4,0.3,0.8,0.3
					c0.1,0,0.2,0,0.4-0.1c0.1,0,0.2-0.1,0.3-0.2c0.1-0.1,0.2-0.2,0.3-0.4c0.1-0.2,0.1-0.3,0.1-0.6v-0.6h1.7V108.9z"/>
				<path class="st0" d="M34.8,103.3h1.7v0.9c0.3-0.3,0.7-0.5,1-0.7c0.3-0.2,0.7-0.3,1.2-0.3v1.7c-0.2-0.1-0.3-0.1-0.5-0.1
					c-0.2,0-0.4,0-0.6,0.1c-0.2,0.1-0.4,0.2-0.6,0.3c-0.2,0.1-0.3,0.3-0.4,0.6c-0.1,0.2-0.2,0.5-0.2,0.8v4.9h-1.7V103.3z"/>
				<path class="st0" d="M41.5,108v1.1c0,0.3,0.1,0.5,0.2,0.6c0.1,0.1,0.3,0.2,0.6,0.2c0.3,0,0.5-0.1,0.6-0.3
					c0.1-0.2,0.2-0.4,0.2-0.6h1.7c0,0.3-0.1,0.7-0.2,1c-0.1,0.3-0.3,0.6-0.5,0.8c-0.2,0.2-0.5,0.4-0.8,0.5c-0.3,0.1-0.7,0.2-1,0.2
					c-0.5,0-1-0.1-1.3-0.3c-0.4-0.2-0.7-0.5-0.9-0.9c-0.1-0.2-0.2-0.5-0.2-0.7c0-0.3-0.1-0.6-0.1-0.9v-2.7c0-0.3,0-0.6,0.1-0.9
					c0-0.3,0.1-0.5,0.2-0.7c0.2-0.4,0.5-0.6,0.9-0.9c0.4-0.2,0.8-0.3,1.3-0.3c0.4,0,0.7,0.1,1,0.2c0.3,0.1,0.6,0.3,0.8,0.5
					c0.2,0.2,0.4,0.5,0.5,0.8c0.1,0.3,0.2,0.6,0.2,1v2.3H41.5z M41.5,106.7h1.6v-0.9c0-0.3-0.1-0.5-0.2-0.7
					c-0.1-0.2-0.3-0.2-0.6-0.2c-0.3,0-0.5,0.1-0.6,0.2c-0.1,0.2-0.2,0.4-0.2,0.7V106.7z"/>
				<path class="st0" d="M49.9,110.7L49.9,110.7c-0.3,0.3-0.5,0.5-0.7,0.7c-0.2,0.2-0.5,0.2-0.9,0.2c-0.2,0-0.4,0-0.6-0.1
					c-0.2-0.1-0.4-0.2-0.6-0.3c-0.2-0.2-0.3-0.4-0.4-0.7c-0.1-0.3-0.2-0.7-0.2-1.1c0-0.5,0-0.9,0.1-1.2c0.1-0.4,0.2-0.6,0.4-0.9
					c0.2-0.2,0.5-0.4,0.8-0.5c0.3-0.1,0.8-0.2,1.3-0.2c0.1,0,0.2,0,0.4,0c0.1,0,0.3,0,0.4,0v-0.9c0-0.3-0.1-0.5-0.2-0.7
					c-0.1-0.2-0.3-0.3-0.7-0.3c-0.2,0-0.4,0.1-0.6,0.2c-0.2,0.1-0.3,0.3-0.4,0.6h-1.6c0.1-0.7,0.3-1.3,0.8-1.8
					c0.2-0.2,0.5-0.4,0.8-0.5c0.3-0.1,0.7-0.2,1-0.2c0.4,0,0.7,0.1,1,0.2c0.3,0.1,0.6,0.3,0.8,0.5c0.2,0.2,0.4,0.5,0.5,0.8
					c0.1,0.3,0.2,0.7,0.2,1.1v5.7h-1.7V110.7z M49.9,108c-0.2,0-0.3,0-0.5,0c-0.4,0-0.7,0.1-0.9,0.3c-0.3,0.2-0.4,0.5-0.4,0.9
					c0,0.3,0.1,0.6,0.2,0.8c0.2,0.2,0.4,0.3,0.6,0.3c0.3,0,0.5-0.1,0.7-0.3c0.2-0.2,0.2-0.4,0.2-0.8V108z"/>
				<path class="st0" d="M53.5,100.8h1.7v2.5h1v1.3h-1v4.5c0,0.2,0,0.3,0.1,0.5c0,0.1,0.1,0.2,0.2,0.2c0.1,0.1,0.2,0.1,0.3,0.1
					c0.1,0,0.3,0,0.5,0v1.6h-0.7c-0.4,0-0.7-0.1-1-0.2c-0.3-0.1-0.5-0.3-0.6-0.5c-0.2-0.2-0.3-0.4-0.3-0.6c-0.1-0.2-0.1-0.5-0.1-0.7
					v-5h-0.8v-1.3h0.8V100.8z"/>
				<path class="st0" d="M59.1,108v1.1c0,0.3,0.1,0.5,0.2,0.6c0.1,0.1,0.3,0.2,0.6,0.2c0.3,0,0.5-0.1,0.6-0.3
					c0.1-0.2,0.2-0.4,0.2-0.6h1.7c0,0.3-0.1,0.7-0.2,1c-0.1,0.3-0.3,0.6-0.5,0.8c-0.2,0.2-0.5,0.4-0.8,0.5c-0.3,0.1-0.7,0.2-1,0.2
					c-0.5,0-1-0.1-1.3-0.3c-0.4-0.2-0.7-0.5-0.9-0.9c-0.1-0.2-0.2-0.5-0.2-0.7c0-0.3-0.1-0.6-0.1-0.9v-2.7c0-0.3,0-0.6,0.1-0.9
					c0-0.3,0.1-0.5,0.2-0.7c0.2-0.4,0.5-0.6,0.9-0.9c0.4-0.2,0.8-0.3,1.3-0.3c0.4,0,0.7,0.1,1,0.2c0.3,0.1,0.6,0.3,0.8,0.5
					c0.2,0.2,0.4,0.5,0.5,0.8c0.1,0.3,0.2,0.6,0.2,1v2.3H59.1z M59.1,106.7h1.6v-0.9c0-0.3-0.1-0.5-0.2-0.7
					c-0.1-0.2-0.3-0.2-0.6-0.2c-0.3,0-0.5,0.1-0.6,0.2c-0.1,0.2-0.2,0.4-0.2,0.7V106.7z"/>
				<path class="st0" d="M67.3,110.8c-0.1,0.1-0.2,0.2-0.3,0.3c-0.1,0.1-0.2,0.2-0.3,0.3c-0.1,0.1-0.3,0.1-0.4,0.2
					c-0.2,0-0.3,0.1-0.5,0.1c-0.7,0-1.2-0.3-1.5-0.8c-0.1-0.2-0.2-0.4-0.2-0.7c0-0.3-0.1-0.6-0.1-1.1v-3.1c0-0.6,0-1,0-1.3
					c0-0.3,0.1-0.5,0.2-0.7c0.1-0.2,0.3-0.4,0.6-0.5c0.2-0.1,0.5-0.2,0.9-0.2c0.3,0,0.6,0.1,0.9,0.2c0.3,0.1,0.5,0.4,0.7,0.6h0V100
					H69v11.5h-1.7V110.8z M65.6,108.8c0,0.3,0.1,0.6,0.2,0.8c0.1,0.2,0.3,0.3,0.6,0.3c0.3,0,0.5-0.1,0.6-0.3
					c0.2-0.2,0.2-0.4,0.2-0.7v-3.2c0-0.3-0.1-0.5-0.2-0.6c-0.2-0.2-0.4-0.3-0.6-0.3c-0.3,0-0.5,0.1-0.7,0.3
					c-0.1,0.2-0.2,0.4-0.2,0.7V108.8z"/>
				<path class="st0" d="M74.8,100h1.7v4.1h0c0.2-0.3,0.4-0.5,0.7-0.6c0.3-0.1,0.6-0.2,0.9-0.2c0.4,0,0.7,0.1,0.9,0.2
					c0.2,0.1,0.4,0.3,0.6,0.5c0.1,0.2,0.2,0.4,0.2,0.7c0,0.3,0,0.7,0,1.3v3.1c0,0.5,0,0.8-0.1,1.1c0,0.3-0.1,0.5-0.2,0.7
					c-0.3,0.5-0.8,0.8-1.5,0.8c-0.4,0-0.7-0.1-1-0.2c-0.2-0.2-0.4-0.4-0.6-0.6v0.7h-1.7V100z M78.1,105.8c0-0.3-0.1-0.5-0.2-0.7
					c-0.1-0.2-0.3-0.3-0.7-0.3c-0.2,0-0.4,0.1-0.6,0.3c-0.2,0.2-0.2,0.4-0.2,0.6v3.2c0,0.3,0.1,0.5,0.2,0.7c0.2,0.2,0.4,0.3,0.6,0.3
					c0.3,0,0.5-0.1,0.6-0.3c0.1-0.2,0.2-0.5,0.2-0.8V105.8z"/>
				<path class="st0" d="M82.9,103.3l1.2,5.1h0l1.1-5.1H87l-2.4,9.6c-0.1,0.4-0.2,0.7-0.4,0.9c-0.2,0.2-0.3,0.4-0.6,0.6
					c-0.2,0.1-0.4,0.2-0.7,0.3c-0.2,0.1-0.5,0.1-0.7,0.1h-0.5v-1.6h0.4c0.2,0,0.3,0,0.4-0.1c0.1,0,0.2-0.1,0.3-0.3
					c0.1-0.1,0.2-0.4,0.3-0.6c0.1-0.3,0.2-0.7,0.3-1.1l-2.3-7.8H82.9z"/>
			</g>
		</g>
	</g>
</g>
</svg>
