<svg xmlns="http://www.w3.org/2000/svg" xmlns:xlink="http://www.w3.org/1999/xlink" viewBox="0 0 334.57 334.57"><defs><style>.cls-1{font-size:30px;fill:#81c8c0;font-family:TeluguMN, Telugu MN;}.cls-2{font-size:25px;}.cls-3{fill:#ecaec0;}.cls-4{fill:url(#名称未設定グラデーション_35);}.cls-5{fill:#96c9d8;}.cls-13,.cls-14,.cls-15,.cls-18,.cls-20,.cls-21,.cls-22,.cls-25,.cls-31,.cls-6,.cls-7,.cls-9{fill:none;}.cls-15,.cls-17,.cls-22,.cls-24,.cls-27,.cls-6,.cls-7,.cls-9{stroke-linecap:round;}.cls-13,.cls-14,.cls-15,.cls-17,.cls-18,.cls-20,.cls-21,.cls-22,.cls-24,.cls-25,.cls-27,.cls-31,.cls-6,.cls-7,.cls-9{stroke-miterlimit:10;}.cls-27,.cls-6,.cls-7,.cls-9{stroke-width:0.43px;}.cls-6{stroke:url(#名称未設定グラデーション_66);}.cls-7{stroke:url(#名称未設定グラデーション_66-2);}.cls-8{fill:#4faec0;}.cls-15,.cls-17,.cls-22,.cls-24,.cls-27,.cls-9{stroke:#4faec0;}.cls-10{fill:url(#名称未設定グラデーション_66-3);}.cls-11{fill:url(#名称未設定グラデーション_66-4);}.cls-12{fill:url(#名称未設定グラデーション_66-5);}.cls-13{stroke:url(#名称未設定グラデーション_66-6);}.cls-14{stroke:url(#名称未設定グラデーション_66-7);}.cls-15,.cls-17,.cls-31{stroke-width:0.57px;}.cls-16{fill:url(#名称未設定グラデーション_66-8);}.cls-17{fill:url(#名称未設定グラデーション_66-9);}.cls-18,.cls-25{stroke:#96c9d8;}.cls-19{fill:url(#名称未設定グラデーション_66-10);}.cls-20,.cls-21,.cls-22,.cls-24,.cls-25{stroke-width:0.71px;}.cls-20{stroke:url(#名称未設定グラデーション_66-11);}.cls-21{stroke:url(#名称未設定グラデーション_66-12);}.cls-23{fill:url(#名称未設定グラデーション_66-13);}.cls-24{fill:url(#名称未設定グラデーション_66-14);}.cls-26{fill:url(#名称未設定グラデーション_66-15);}.cls-27{fill:url(#名称未設定グラデーション_66-16);}.cls-28{fill:url(#名称未設定グラデーション_66-17);}.cls-29{fill:url(#名称未設定グラデーション_66-18);}.cls-30{fill:url(#名称未設定グラデーション_66-19);}.cls-31{stroke:#68adbf;}</style><linearGradient id="名称未設定グラデーション_35" x1="165.47" y1="99.87" x2="170.92" y2="266.31" gradientUnits="userSpaceOnUse"><stop offset="0" stop-color="#fff"/><stop offset="0.21" stop-color="#ffc1c0"/><stop offset="0.42" stop-color="#ecaec0"/><stop offset="0.52" stop-color="#deaec0"/><stop offset="0.82" stop-color="#9ff3ed"/></linearGradient><linearGradient id="名称未設定グラデーション_66" x1="203.04" y1="178.73" x2="235.55" y2="178.73" gradientTransform="matrix(0.74, -0.67, 0.67, 0.74, -70.61, 187.21)" gradientUnits="userSpaceOnUse"><stop offset="0" stop-color="#fff"/><stop offset="0" stop-color="#9ff3ed"/><stop offset="0" stop-color="#39aec0"/><stop offset="0.72" stop-color="#85c1c0"/><stop offset="0.94" stop-color="#7dc2c0"/><stop offset="1" stop-color="#34cfc0"/><stop offset="1" stop-color="#ecaec0"/><stop offset="1" stop-color="#e0aec0"/><stop offset="1" stop-color="#49cca6"/><stop offset="1" stop-color="#acaec0"/><stop offset="1" stop-color="#28aec0"/></linearGradient><linearGradient id="名称未設定グラデーション_66-2" x1="204.28" y1="178.73" x2="234.31" y2="178.73" xlink:href="#名称未設定グラデーション_66"/><linearGradient id="名称未設定グラデーション_66-3" x1="213.54" y1="158.81" x2="213.57" y2="159.98" gradientTransform="matrix(1, 0, 0, 1, 0, 0)" xlink:href="#名称未設定グラデーション_66"/><linearGradient id="名称未設定グラデーション_66-4" x1="198.64" y1="169.22" x2="199.8" y2="169.22" gradientTransform="matrix(1, 0, 0, 1, 0, 0)" xlink:href="#名称未設定グラデーション_66"/><linearGradient id="名称未設定グラデーション_66-5" x1="217.39" y1="178.52" x2="219.51" y2="178.52" xlink:href="#名称未設定グラデーション_66"/><linearGradient id="名称未設定グラデーション_66-6" x1="174.28" y1="129.28" x2="251.28" y2="129.28" gradientTransform="matrix(1, 0, 0, 1, 0, 0)" xlink:href="#名称未設定グラデーション_66"/><linearGradient id="名称未設定グラデーション_66-7" x1="177.21" y1="129.28" x2="248.36" y2="129.28" gradientTransform="matrix(1, 0, 0, 1, 0, 0)" xlink:href="#名称未設定グラデーション_66"/><linearGradient id="名称未設定グラデーション_66-8" x1="221.5" y1="101.94" x2="224.27" y2="101.94" gradientTransform="matrix(1, 0, 0, 1, 0, 0)" xlink:href="#名称未設定グラデーション_66"/><linearGradient id="名称未設定グラデーション_66-9" x1="211.53" y1="115.05" x2="222.83" y2="115.05" gradientTransform="matrix(1, 0, 0, 1, 0, 0)" xlink:href="#名称未設定グラデーション_66"/><linearGradient id="名称未設定グラデーション_66-10" x1="208.28" y1="128.78" x2="213.28" y2="128.78" gradientTransform="matrix(1, 0, 0, 1, 0, 0)" xlink:href="#名称未設定グラデーション_66"/><linearGradient id="名称未設定グラデーション_66-11" x1="74.34" y1="168.79" x2="109.25" y2="168.79" gradientTransform="translate(290.59 138.97) rotate(99.73)" xlink:href="#名称未設定グラデーション_66"/><linearGradient id="名称未設定グラデーション_66-12" x1="75.65" y1="168.79" x2="107.93" y2="168.79" gradientTransform="translate(290.59 138.97) rotate(99.73)" xlink:href="#名称未設定グラデーション_66"/><linearGradient id="名称未設定グラデーション_66-13" x1="95.72" y1="156.49" x2="96.96" y2="156.49" gradientTransform="translate(290.59 138.97) rotate(99.73)" xlink:href="#名称未設定グラデーション_66"/><linearGradient id="名称未設定グラデーション_66-14" x1="91.23" y1="162.39" x2="96.31" y2="162.39" gradientTransform="translate(290.59 138.97) rotate(99.73)" xlink:href="#名称未設定グラデーション_66"/><linearGradient id="名称未設定グラデーション_66-15" x1="89.77" y1="168.57" x2="92.02" y2="168.57" gradientTransform="translate(290.59 138.97) rotate(99.73)" xlink:href="#名称未設定グラデーション_66"/><linearGradient id="名称未設定グラデーション_66-16" x1="218.76" y1="172.72" x2="223.54" y2="172.72" xlink:href="#名称未設定グラデーション_66"/><linearGradient id="名称未設定グラデーション_66-17" x1="222.98" y1="167.19" x2="224.14" y2="167.19" xlink:href="#名称未設定グラデーション_66"/><linearGradient id="名称未設定グラデーション_66-18" x1="210.64" y1="56.38" x2="213.37" y2="139.6" gradientTransform="translate(-25.12 66.87) rotate(24.19)" xlink:href="#名称未設定グラデーション_66"/><linearGradient id="名称未設定グラデーション_66-19" x1="-174.38" y1="229.35" x2="-171.65" y2="312.57" gradientTransform="matrix(-0.91, 0.41, 0.41, 0.91, -62.6, 66.87)" xlink:href="#名称未設定グラデーション_66"/></defs><title>logo</title><g id="レイヤー_2" data-name="レイヤー 2"><g id="レイヤー_2-2" data-name="レイヤー 2"><text class="cls-1" transform="translate(137.01 91.02)">S<tspan class="cls-2" x="15.53" y="-2.05">tory</tspan></text><text class="cls-1" transform="translate(109.12 64.02)">E<tspan class="cls-2" x="16.9" y="-2.05">vergreen</tspan></text><path class="cls-3" d="M127.31,189.29c.21.1,1.57.72,3.66,1.78A24.59,24.59,0,0,1,127.31,189.29Z"/><path class="cls-4" d="M130.72,193.13c10,5.06,36.18,19.78,36.18,35.15,0-15.24,25.74-29.84,35.92-35A36.63,36.63,0,0,1,197,195a39.94,39.94,0,0,0,6.07-1.84l-.26.14A37,37,0,1,0,167.4,129a37,37,0,0,0-59,29.75c0,20.43,15.57,37,36,37M166.9,189l0,0,.54-.39.06,0Zm36.31,4.12c2.09-1.06,3.45-1.68,3.66-1.78A24.59,24.59,0,0,1,203.21,193.07Z"/><circle class="cls-5" cx="201.97" cy="163.48" r="0.58"/><path class="cls-6" d="M223.69,160.47c5.58,6.11,4.81,15.91-1.74,21.88s-16.36,5.87-21.95-.25-4.8-15.9,1.74-21.88"/><path class="cls-7" d="M222.78,161.3c5.15,5.64,4.43,14.68-1.6,20.2s-15.11,5.41-20.27-.23-4.43-14.68,1.61-20.2"/><circle class="cls-8" cx="209.05" cy="183.56" r="0.58"/><line class="cls-9" x1="209.13" y1="183.8" x2="211.3" y2="171.48"/><circle class="cls-8" cx="215.39" cy="183.07" r="0.58"/><line class="cls-9" x1="215.58" y1="183.23" x2="211.3" y2="171.48"/><circle class="cls-8" cx="220.64" cy="179.47" r="0.58"/><line class="cls-9" x1="220.88" y1="179.52" x2="211.3" y2="171.48"/><circle class="cls-8" cx="223.39" cy="173.73" r="0.58"/><line class="cls-9" x1="223.62" y1="173.65" x2="211.3" y2="171.48"/><circle class="cls-8" cx="222.89" cy="167.39" r="0.58"/><line class="cls-9" x1="223.06" y1="167.2" x2="211.3" y2="171.48"/><circle class="cls-8" cx="219.3" cy="162.14" r="0.58"/><line class="cls-9" x1="219.35" y1="161.9" x2="211.3" y2="171.48"/><line class="cls-9" x1="213.48" y1="159.16" x2="211.3" y2="171.48"/><circle class="cls-10" cx="213.56" cy="159.39" r="0.58"/><line class="cls-9" x1="201.72" y1="163.43" x2="211.3" y2="171.48"/><line class="cls-9" x1="198.98" y1="169.3" x2="211.3" y2="171.48"/><circle class="cls-8" cx="199.71" cy="175.57" r="0.58"/><line class="cls-9" x1="199.55" y1="175.75" x2="211.3" y2="171.48"/><circle class="cls-11" cx="199.22" cy="169.22" r="0.58"/><circle class="cls-8" cx="203.31" cy="180.81" r="0.58"/><line class="cls-9" x1="203.26" y1="181.06" x2="211.3" y2="171.48"/><circle class="cls-12" cx="211.08" cy="171.7" r="1.06"/><path class="cls-3" d="M203.46,191.13l-.26.14a36.63,36.63,0,0,1-5.81,1.7A39.94,39.94,0,0,0,203.46,191.13Z"/><path class="cls-3" d="M207.25,189.29a24.59,24.59,0,0,1-3.66,1.78C205.68,190,207,189.39,207.25,189.29Z"/><circle class="cls-5" cx="207.96" cy="99.85" r="1.38"/><circle class="cls-5" cx="193.99" cy="105.5" r="1.38"/><path class="cls-13" d="M250.78,129.28c0,19.61-17,35.5-38,35.5s-38-15.89-38-35.5,17-35.5,38-35.5"/><path class="cls-14" d="M247.86,129.28c0,18.1-15.7,32.77-35.08,32.77s-35.07-14.67-35.07-32.77,15.7-32.76,35.07-32.76"/><circle class="cls-8" cx="188.28" cy="146.28" r="1.38"/><line class="cls-15" x1="188.04" y1="146.82" x2="211.53" y2="128.75"/><circle class="cls-8" cx="200.17" cy="155.56" r="1.38"/><line class="cls-15" x1="200.22" y1="156.14" x2="211.53" y2="128.75"/><circle class="cls-8" cx="215.09" cy="157.64" r="1.38"/><line class="cls-15" x1="215.43" y1="158.12" x2="211.53" y2="128.75"/><circle class="cls-8" cx="229.06" cy="151.99" r="1.38"/><line class="cls-15" x1="229.6" y1="152.23" x2="211.53" y2="128.75"/><circle class="cls-8" cx="238.33" cy="140.11" r="1.38"/><line class="cls-15" x1="238.92" y1="140.05" x2="211.53" y2="128.75"/><circle class="cls-8" cx="240.42" cy="125.18" r="1.38"/><line class="cls-15" x1="240.9" y1="124.84" x2="211.53" y2="128.75"/><circle class="cls-8" cx="234.77" cy="111.21" r="1.38"/><line class="cls-15" x1="235.01" y1="110.67" x2="211.53" y2="128.75"/><circle class="cls-16" cx="222.89" cy="101.94" r="1.38"/><line class="cls-17" x1="222.83" y1="101.35" x2="211.53" y2="128.75"/><line class="cls-18" x1="207.62" y1="99.37" x2="211.53" y2="128.75"/><line class="cls-18" x1="193.45" y1="105.26" x2="211.53" y2="128.75"/><circle class="cls-8" cx="184.72" cy="117.39" r="1.38"/><line class="cls-15" x1="184.13" y1="117.44" x2="211.53" y2="128.75"/><circle class="cls-8" cx="182.63" cy="132.31" r="1.38"/><line class="cls-15" x1="182.15" y1="132.66" x2="211.53" y2="128.75"/><circle class="cls-19" cx="210.78" cy="128.78" r="2.5"/><circle class="cls-5" cx="122.13" cy="201" r="0.62"/><circle class="cls-5" cx="120.68" cy="194.38" r="0.62"/><path class="cls-20" d="M105.82,217.76c-8.7-1.49-14.45-10.25-12.86-19.56s9.94-15.64,18.64-14.15,14.45,10.25,12.85,19.55"/><path class="cls-21" d="M106,216.46c-8-1.38-13.34-9.46-11.86-18.05s9.17-14.44,17.2-13.06,13.34,9.45,11.86,18.05"/><circle class="cls-8" cx="103.03" cy="188.74" r="0.62"/><line class="cls-22" x1="102.81" y1="188.6" x2="109.04" y2="200.39"/><circle class="cls-8" cx="98.02" cy="193.31" r="0.62"/><line class="cls-22" x1="97.75" y1="193.29" x2="109.04" y2="200.39"/><circle class="cls-8" cx="95.95" cy="199.77" r="0.62"/><line class="cls-22" x1="95.72" y1="199.89" x2="109.04" y2="200.39"/><circle class="cls-8" cx="97.4" cy="206.4" r="0.62"/><line class="cls-22" x1="97.25" y1="206.62" x2="109.04" y2="200.39"/><circle class="cls-8" cx="101.96" cy="211.41" r="0.62"/><line class="cls-22" x1="101.95" y1="211.68" x2="109.04" y2="200.39"/><circle class="cls-8" cx="108.43" cy="213.47" r="0.62"/><line class="cls-22" x1="108.54" y1="213.71" x2="109.04" y2="200.39"/><circle class="cls-8" cx="115.05" cy="212.03" r="0.62"/><line class="cls-22" x1="115.27" y1="212.18" x2="109.04" y2="200.39"/><circle class="cls-23" cx="120.07" cy="207.46" r="0.62"/><line class="cls-24" x1="120.33" y1="207.48" x2="109.04" y2="200.39"/><line class="cls-25" x1="122.37" y1="200.89" x2="109.04" y2="200.39"/><line class="cls-25" x1="120.83" y1="194.16" x2="109.04" y2="200.39"/><circle class="cls-8" cx="116.12" cy="189.36" r="0.62"/><line class="cls-22" x1="116.14" y1="189.1" x2="109.04" y2="200.39"/><circle class="cls-8" cx="109.66" cy="187.3" r="0.62"/><line class="cls-22" x1="109.54" y1="187.06" x2="109.04" y2="200.39"/><circle class="cls-26" cx="109.08" cy="200.05" r="1.12"/><line class="cls-27" x1="207.03" y1="159.72" x2="211.3" y2="171.48"/><circle class="cls-28" cx="207.21" cy="159.89" r="0.58"/><path class="cls-29" d="M109,240c3.52,4.36,12.45,16.44,9.3,23.45,3.12-7,17.85-8.34,23.55-8.61a18.2,18.2,0,0,1-3-.42,19.46,19.46,0,0,0,3.15.41h-.15a18.5,18.5,0,1,0-3-36.56,18.5,18.5,0,0,0-33,1.48c-4.19,9.32-.48,20.07,8.83,24.25m11.67,1.5,0,0,.33-.07,0,0ZM142,254.86c1.17-.06,1.92-.06,2-.07A12.35,12.35,0,0,1,142,254.86Z"/><path class="cls-30" d="M219.71,244c9.32-4.18,13-14.93,8.84-24.25a18.5,18.5,0,0,0-33-1.48,18.5,18.5,0,1,0-3,36.56h-.15a19.22,19.22,0,0,0,3.14-.41,17.93,17.93,0,0,1-3,.42c5.7.27,20.43,1.65,23.55,8.61-3.15-7,5.78-19.09,9.3-23.45m-17.69,5.45,0,0,.32.07v0Zm-17.42,9.31c.12,0,.87,0,2,.07A12.35,12.35,0,0,1,190.3,254.79Z"/><circle class="cls-31" cx="167.28" cy="167.28" r="167"/></g></g></svg>